<svg width="512" height="512" viewBox="0 0 512 512" fill="none" xmlns="http://www.w3.org/2000/svg">
<path d="M448 160.8V128C448 115.27 442.943 103.061 433.941 94.0589C424.939 85.0571 412.73 80 400 80V56C400 45.3913 395.786 35.2172 388.284 27.7157C380.783 20.2143 370.609 16 360 16H152C141.391 16 131.217 20.2143 123.716 27.7157C116.214 35.2172 112 45.3913 112 56V80C99.2696 80 87.0606 85.0571 78.0589 94.0589C69.0571 103.061 64 115.27 64 128V160.8C50.7104 162.718 38.5524 169.347 29.7416 179.48C20.9309 189.612 16.0541 202.573 16 216V440C16 454.852 21.9 469.096 32.402 479.598C42.9041 490.1 57.1479 496 72 496H440C454.852 496 469.096 490.1 479.598 479.598C490.1 469.096 496 454.852 496 440V216C495.946 202.573 491.069 189.612 482.258 179.48C473.448 169.347 461.29 162.718 448 160.8ZM144 56C144 53.8783 144.843 51.8434 146.343 50.3431C147.843 48.8429 149.878 48 152 48H360C362.122 48 364.157 48.8429 365.657 50.3431C367.157 51.8434 368 53.8783 368 56V80H144V56ZM112 112H400C404.243 112 408.313 113.686 411.314 116.686C414.314 119.687 416 123.757 416 128V160H96V128C96 123.757 97.6857 119.687 100.686 116.686C103.687 113.686 107.757 112 112 112ZM464 440C464 446.365 461.471 452.47 456.971 456.971C452.47 461.471 446.365 464 440 464H72C65.6348 464 59.5303 461.471 55.0294 456.971C50.5286 452.47 48 446.365 48 440V216C48 209.635 50.5286 203.53 55.0294 199.029C59.5303 194.529 65.6348 192 72 192H440C446.365 192 452.47 194.529 456.971 199.029C461.471 203.53 464 209.635 464 216V440Z" fill="white"/>
<path d="M262.08 243.36C260.173 244.866 258.635 246.788 257.581 248.978C256.528 251.168 255.987 253.569 256 256V336H208C195.27 336 183.061 341.057 174.059 350.058C165.057 359.06 160 371.269 160 384C160 396.73 165.057 408.939 174.059 417.941C183.061 426.942 195.27 432 208 432H240C246.303 432 252.545 430.758 258.369 428.346C264.192 425.934 269.484 422.398 273.941 417.941C278.398 413.483 281.934 408.192 284.346 402.368C286.758 396.545 288 390.303 288 384V276.48L347.68 291.359L355.36 260.32L275.36 240.48C273.071 239.956 270.694 239.942 268.399 240.44C266.104 240.937 263.947 241.934 262.08 243.36ZM256 384C256 388.243 254.314 392.313 251.314 395.313C248.313 398.314 244.243 400 240 400H208C203.757 400 199.687 398.314 196.686 395.313C193.686 392.313 192 388.243 192 384C192 379.756 193.686 375.686 196.686 372.686C199.687 369.685 203.757 368 208 368H256V384Z" fill="white"/>
</svg>
