<svg width="24" height="24" viewBox="0 0 24 24" fill="none" xmlns="http://www.w3.org/2000/svg">
<path d="M18 1.25C20.6234 1.25 22.75 3.37665 22.75 6V18C22.75 20.6234 20.6234 22.75 18 22.75H6C3.37665 22.75 1.25 20.6234 1.25 18V6C1.25 3.37665 3.37665 1.25 6 1.25H18ZM6 2.75C4.20507 2.75 2.75 4.20507 2.75 6V14.5L5.27148 16.1807C6.85782 17.2382 8.97008 17.0295 10.3184 15.6816L13.6816 12.3184C15.0299 10.9705 17.1422 10.7618 18.7285 11.8193L21.1094 13.4062C21.1579 13.4386 21.2049 13.4727 21.25 13.5088V6C21.25 4.20507 19.7949 2.75 18 2.75H6ZM8.5 6C9.88071 6 11 7.11929 11 8.5C11 9.88071 9.88071 11 8.5 11C7.11929 11 6 9.88071 6 8.5C6 7.11929 7.11929 6 8.5 6Z" fill="#048EFF"/>
</svg>
