<svg width="24" height="24" viewBox="0 0 24 24" fill="none" xmlns="http://www.w3.org/2000/svg">
<path d="M18 2C20.2091 2 22 3.79086 22 6V18C22 20.2091 20.2091 22 18 22H6C3.79086 22 2 20.2091 2 18V6C2 3.79086 3.79086 2 6 2H18ZM12 6.25C11.5858 6.25 11.25 6.58579 11.25 7V11.7607C10.7449 11.4374 10.1443 11.25 9.5 11.25C7.70507 11.25 6.25 12.7051 6.25 14.5C6.25 16.2949 7.70507 17.75 9.5 17.75C11.2949 17.75 12.75 16.2949 12.75 14.5V7.81641C14.7395 8.17067 16.25 9.90873 16.25 12C16.25 12.4142 16.5858 12.75 17 12.75C17.4142 12.75 17.75 12.4142 17.75 12C17.75 8.82436 15.1756 6.25 12 6.25Z" fill="#048EFF"/>
</svg>
