<svg width="512" height="512" viewBox="0 0 512 512" fill="none" xmlns="http://www.w3.org/2000/svg">
<g clip-path="url(#clip0_84_6861)">
<path d="M331.505 227.337C342.513 226.379 351.74 236.977 351.368 250.146L348.041 367.307C347.46 387.797 333.083 403.958 315.929 403.405C298.776 402.85 285.34 385.79 285.923 365.302C286.504 344.811 300.881 328.651 318.035 329.206C325.027 329.431 331.401 332.399 336.46 337.224L337.912 286.066L225.718 295.811L223.177 385.319L223.172 385.555C222.59 406.045 208.212 422.205 191.059 421.651C173.905 421.098 160.472 404.038 161.052 383.549C161.635 363.059 176.011 346.899 193.166 347.452C200.156 347.679 206.531 350.647 211.59 355.471L214.368 257.606C214.692 246.17 222.219 236.829 231.777 235.998L331.505 227.337Z" fill="white"/>
<path fill-rule="evenodd" clip-rule="evenodd" d="M52.4102 31.0313C59.9741 12.2059 77.3278 0 96.5293 0H191.47C210.672 0 228.026 12.2059 235.59 31.0313L250.55 68.2667H464C490.51 68.2667 512 91.1898 512 119.467V460.8C512 489.078 490.51 512 464 512H48C21.4904 512 0 489.078 0 460.8V119.467C0 95.2665 15.7404 74.9877 36.8965 69.6434L52.4102 31.0313ZM480 119.467V139.447C474.995 137.56 469.61 136.533 464 136.533H48C42.3898 136.533 37.0045 137.56 32 139.447V119.467C32 110.041 39.1635 102.4 48 102.4C54.4005 102.4 60.1851 98.3313 62.7064 92.0562L81.8229 44.4771C84.3442 38.202 90.1288 34.1333 96.5293 34.1333H191.47C197.872 34.1333 203.656 38.202 206.178 44.4771L225.294 92.0562C227.814 98.3313 233.6 102.4 240 102.4H464C472.837 102.4 480 110.041 480 119.467ZM32 460.8V187.733C32 178.307 39.1635 170.667 48 170.667H464C472.837 170.667 480 178.307 480 187.733V460.8C480 470.226 472.837 477.867 464 477.867H48C39.1635 477.867 32 470.226 32 460.8Z" fill="white"/>
</g>
<defs>
<clipPath id="clip0_84_6861">
<rect width="512" height="512" fill="white"/>
</clipPath>
</defs>
</svg>
