<svg width="24" height="24" viewBox="0 0 24 24" fill="none" xmlns="http://www.w3.org/2000/svg">
<path d="M14.5762 19.5C14.8101 19.5 15 19.6899 15 19.9238C15 19.9744 14.9906 20.0244 14.9717 20.0713C14.5143 21.199 13.3565 22 12 22C10.6435 22 9.4857 21.199 9.02832 20.0713C9.00936 20.0244 9.00004 19.9744 9 19.9238C9 19.6899 9.18994 19.5 9.42383 19.5H14.5762ZM12 2C13.2536 2.00002 14.2695 3.01686 14.2695 4.27051V4.37402C16.4119 5.10755 17.9981 6.85103 18.2393 8.97559L18.6865 12.915C18.767 13.6245 19.0663 14.3016 19.5518 14.8721C20.6487 16.1608 19.6056 17.9999 17.7773 18H6.22266C4.39439 17.9999 3.35036 16.1608 4.44727 14.8721C4.93292 14.3015 5.23294 13.6247 5.31348 12.915L5.76074 8.97559C6.00187 6.85103 7.58807 5.10755 9.73047 4.37402V4.27051C9.73047 3.01685 10.7463 2 12 2ZM15.5635 2.46191C15.7174 2.07757 16.1536 1.89033 16.5381 2.04395L16.7051 2.11133C18.384 2.78291 19.7234 4.10006 20.4229 5.76758L20.5 5.9502C20.6602 6.33215 20.4806 6.77238 20.0986 6.93262C19.7169 7.09276 19.2776 6.91283 19.1172 6.53125L19.04 6.34766C18.496 5.05071 17.4543 4.02625 16.1484 3.50391L15.9814 3.4375C15.5969 3.28367 15.4096 2.8465 15.5635 2.46191ZM7.46191 2C7.84644 1.84633 8.28272 2.03346 8.43652 2.41797C8.59036 2.80256 8.40314 3.23874 8.01855 3.39258L7.85156 3.45996C6.54575 3.98231 5.50397 5.00677 4.95996 6.30371L4.88281 6.48633C4.72259 6.8683 4.28334 7.04792 3.90137 6.8877C3.51957 6.72739 3.33981 6.28814 3.5 5.90625L3.57715 5.72363C4.27661 4.0561 5.61597 2.73896 7.29492 2.06738L7.46191 2Z" fill="#048EFF"/>
</svg>
