<svg width="24" height="24" viewBox="0 0 24 24" fill="none" xmlns="http://www.w3.org/2000/svg">
<path d="M18 2C20.2091 2 22 3.79086 22 6V18C22 20.2091 20.2091 22 18 22H6C3.79086 22 2 20.2091 2 18V6C2 3.79086 3.79086 2 6 2H18ZM12 5.75C11.5858 5.75 11.25 6.08579 11.25 6.5V7.35645C10.0961 7.68316 9.25 8.7415 9.25 10C9.25 11.4923 10.4387 12.7032 11.9209 12.7451C11.9469 12.7478 11.9733 12.75 12 12.75C12.6904 12.75 13.25 13.3096 13.25 14C13.25 14.6904 12.6904 15.25 12 15.25C11.3096 15.25 10.75 14.6904 10.75 14C10.75 13.5858 10.4142 13.25 10 13.25C9.58579 13.25 9.25 13.5858 9.25 14C9.25 15.2584 10.0963 16.3158 11.25 16.6426V17.5C11.25 17.9142 11.5858 18.25 12 18.25C12.4142 18.25 12.75 17.9142 12.75 17.5V16.6426C13.9037 16.3158 14.75 15.2584 14.75 14C14.75 12.5074 13.5607 11.2953 12.0781 11.2539C12.0524 11.2512 12.0264 11.25 12 11.25C11.3096 11.25 10.75 10.6904 10.75 10C10.75 9.30965 11.3096 8.75 12 8.75C12.6904 8.75 13.25 9.30965 13.25 10C13.25 10.4142 13.5858 10.75 14 10.75C14.4142 10.75 14.75 10.4142 14.75 10C14.75 8.7415 13.9039 7.68316 12.75 7.35645V6.5C12.75 6.08579 12.4142 5.75 12 5.75Z" fill="#048EFF"/>
</svg>
